<!-- by TradingView --><svg width="56" height="56" xmlns="http://www.w3.org/2000/svg"><path fill="#2E7DE1" d="M0 0h56v56H0z"/><path d="M17.895 18.029c2.544-1.172 5.317-1.793 8.1-2.018.45-.002.899 0 1.348.001.849.003 1.697.006 2.545-.012 4.207.321 8.45 1.576 11.82 4.193 1.305 1.078 2.53 2.33 3.282 3.866-4.89-1.072-9.861-1.876-14.872-2.024-.576-.039-1.124.271-1.122.996.01 3.464.007 6.929.003 10.393-.002 2.192-.004 4.384-.003 6.576h-1.992c0-1.9-.002-3.8-.005-5.697v-.002c-.004-3.795-.009-7.586.005-11.386.002-.602-.566-.942-1.12-.877-5.02.17-10.01.938-14.9 2.067.465-.976 1.127-1.842 1.887-2.604 1.41-1.494 3.164-2.622 5.024-3.472zm-7.64 7.947c4.258-.836 8.57-1.439 12.904-1.675.667-.044 1.446.324 1.634 1.01.175 1.023-.02 2.064-.22 3.069l-.407 1.989c-.618 3.013-1.236 6.026-1.85 9.04-2.972-.677-5.873-1.885-8.251-3.824-1.337-1.118-2.524-2.46-3.26-4.055-.813-1.714-1.037-3.715-.55-5.554zm22.976-1.66c-.349-.023-.704-.047-1.03.093-.476.176-.934.574-.956 1.114-.105 1.178.143 2.331.39 3.478.08.378.161.755.23 1.133.202.993.407 1.986.612 2.978.434 2.105.869 4.21 1.282 6.318.313-.098.628-.186.944-.274.47-.13.938-.26 1.397-.425a19.84 19.84 0 005.092-2.57c1.587-1.162 2.997-2.624 3.89-4.394.884-1.73 1.165-3.783.688-5.675-.02-.146-.16-.172-.288-.196a.9.9 0 01-.12-.028c-3.945-.71-7.92-1.299-11.925-1.54a7.11 7.11 0 01-.206-.012z" fill="#fff"/></svg>