<!-- by TradingView --><svg xmlns="http://www.w3.org/2000/svg" width="56" height="56"><path fill="url(#abg420ewp)" d="M0 0h56v56H0z"/><path d="M37.6 41.82c-1.1.84-2.55.96-3.66.42 0 0-.3-.13-.6-.46-.24-.32-6.41-7.51-6.41-7.51l-.02-.02c1.91.35 4-.59 5.08-2.31a5.39 5.39 0 00.02-5.6c-1.22-1.78-3.6-2.37-5.59-2.1-3.45.5-5.93 3.67-6.7 6.99-.8 3.77-.22 7.34 1.02 10.7A9.3 9.3 0 0021.87 44a16.63 16.63 0 01-8.53-8.7 17.5 17.5 0 01.39-14.3c1.74-3.43 4.83-6.6 8.65-7.94 4-1.7 9.38-1.34 13.28.93 4.74 2.43 8.31 8.5 8.33 13.9a16.86 16.86 0 01-6.4 13.93z" fill="#BFA161"/><path d="M23.38 43.83c-1.59-1.95-2.87-4.5-1.9-7.13a26.73 26.73 0 002-6.41c.14 2.43 1.44 4.6 2.06 6.93a6.53 6.53 0 01-.12 3.45 10.34 10.34 0 01-1.9 3.33l-.14-.17z" fill="#BFA161"/><defs><linearGradient id="abg420ewp" x1="10.42" y1="9.71" x2="68.15" y2="76.02" gradientUnits="userSpaceOnUse"><stop stop-color="#1A1E21"/><stop offset="1" stop-color="#06060A"/></linearGradient></defs></svg>