<!-- by TradingView --><svg width="56" height="56" xmlns="http://www.w3.org/2000/svg"><path fill="#F0F3FA" d="M0 0h56v56H0z"/><path d="M20.924 20.516c6.925-6.8 15.325-8.564 18.686-3.93 3.362 4.635.407 14.003-6.517 20.803-6.924 6.85-15.324 8.613-18.737 3.928-3.308-4.683-.353-14.003 6.568-20.8z" fill="#F06321"/><path d="M25.508 16.889c-.764.554-1.527 1.208-2.29 1.916-6.06 5.941-8.607 14.1-5.602 18.182 3.105 4.078 10.538 2.568 16.75-3.427 3.361-3.222 5.6-6.95 6.517-10.425.254-2.568-.102-4.836-1.273-6.548-2.646-3.626-8.349-3.326-14.102.302z" fill="#AE282E"/><path d="M34.264 17.644v.15c-.05.857-.56 1.914-1.476 2.82-1.374 1.31-3.206 1.813-3.972 1.06-.865-.805-.354-2.57 1.02-3.98 1.425-1.36 3.257-1.812 4.02-1.007.255.252.408.554.408.957zm-5.293 23.12c-3.26 2.416-6.619 3.627-9.879 3.123 1.374.05 2.497-1.462 3.413-3.476.916-2.065 1.425-3.978 1.883-5.793.661-2.87.712-4.885.356-5.338-.56-.707-1.781-.554-3.209.252-.712.403-1.628.151-.557-1.158 1.12-1.31 5.446-4.434 6.973-4.937 1.732-.453 3.666.201 3.005 2.064-.46 1.36-6.466 16.873-1.985 15.262z" fill="#fff"/></svg>