<!-- by TradingView --><svg width="56" height="56" xmlns="http://www.w3.org/2000/svg"><path fill="#E40000" d="M0 0h56v56H0z"/><path d="M21.515 44c5.336 0 10.619-4.134 14.424-7.403 4.799-3.762 9.687-11.132 7.634-17.557C42.074 14.38 37.505 12 32.818 12c-6.114 0-12.151 3.223-16.722 7.147-1.982 1.856-4.217 4.949-4.09 7.594a3.555 3.555 0 001.433 2.71c.844.64 1.898.96 2.952.917 2.404 0 5.019-1.28 6.811-2.347 3.137-1.983 5.999-4.114 9.55-5.312 1.677-.583 3.949-.728 4.862 1.119.696 1.365.527 3.52-.422 5.504-1.588 3.067-3.587 5.742-6.293 7.863a24.198 24.198 0 01-7 4.224c-2.974.768-1.16-1.792-1.16-1.792 1.311-1.504 4.645-3.327 4.554-5.483-.063-1.323-1.434-2.133-2.741-2.176h-.084c-4.404 0-8.57 6.84-6.179 10.517.654 1.003 1.75 1.515 3.226 1.515z" fill="#fff"/></svg>